<?xml version="1.0" encoding="iso-8859-1"?>
<!-- Uploaded to: SVG Repo, www.svgrepo.com, Generator: SVG Repo Mixer Tools -->
<svg fill="#000000" height="800px" width="800px" version="1.1" id="Layer_1" xmlns="http://www.w3.org/2000/svg" xmlns:xlink="http://www.w3.org/1999/xlink" 
	 viewBox="0 0 503.72 503.72" xml:space="preserve">
<g>
	<g>
		<path d="M468.184,129.86c-19.512,0-35.388,15.872-35.388,35.384c0,19.512,15.876,35.384,35.388,35.384
			c19.512,0,35.388-15.872,35.388-35.384C503.572,145.732,487.696,129.86,468.184,129.86z M468.184,192.628
			c-15.104,0-27.388-12.284-27.388-27.384c0-15.1,12.288-27.384,27.388-27.384c15.1,0,27.388,12.284,27.388,27.384
			C495.572,180.344,483.288,192.628,468.184,192.628z"/>
	</g>
</g>
<g>
	<g>
		<path d="M302.896,208.492c-10.88,0-19.732,8.852-19.732,19.732c0,10.88,8.852,19.732,19.732,19.732s19.732-8.852,19.732-19.732
			C322.628,217.344,313.776,208.492,302.896,208.492z M302.896,239.96c-6.472,0-11.732-5.26-11.732-11.732
			s5.264-11.732,11.732-11.732c6.468,0,11.732,5.26,11.732,11.732S309.368,239.96,302.896,239.96z"/>
	</g>
</g>
<g>
	<g>
		<path d="M188.96,169.5c-19.512,0-35.384,15.876-35.384,35.388c0,19.512,15.872,35.384,35.384,35.384
			c19.516,0,35.392-15.872,35.392-35.384C224.352,185.376,208.476,169.5,188.96,169.5z M188.96,232.272
			c-15.1,0-27.384-12.284-27.384-27.384c0-15.104,12.288-27.388,27.384-27.388c15.104,0,27.392,12.284,27.392,27.388
			C216.352,219.988,204.06,232.272,188.96,232.272z"/>
	</g>
</g>
<g>
	<g>
		<path d="M334.384,334.396c-10.88,0-19.732,8.852-19.732,19.732s8.852,19.732,19.732,19.732s19.728-8.852,19.732-19.732
			C354.116,343.248,345.264,334.396,334.384,334.396z M334.384,365.86c-6.472,0-11.732-5.26-11.732-11.732
			s5.264-11.732,11.732-11.732c6.468,0,11.732,5.264,11.732,11.732C346.116,360.596,340.856,365.86,334.384,365.86z"/>
	</g>
</g>
<g>
	<g>
		<path d="M483.992,307.008c-10.884,0-19.736,8.852-19.736,19.732s8.852,19.728,19.736,19.728c10.88,0,19.728-8.848,19.728-19.728
			S494.872,307.008,483.992,307.008z M483.992,338.472c-6.472,0-11.736-5.26-11.736-11.728c0-6.472,5.268-11.732,11.736-11.732
			c6.464,0,11.728,5.26,11.728,11.732C495.72,333.212,490.456,338.472,483.992,338.472z"/>
	</g>
</g>
<g>
	<g>
		<path d="M90.524,141.82c-10.884,0-19.736,8.848-19.736,19.728s8.852,19.732,19.736,19.732c10.88,0,19.728-8.852,19.728-19.732
			S101.404,141.82,90.524,141.82z M90.524,173.28c-6.472,0-11.736-5.264-11.736-11.732s5.268-11.728,11.736-11.728
			c6.464,0,11.728,5.26,11.728,11.728S96.988,173.28,90.524,173.28z"/>
	</g>
</g>
<g>
	<g>
		<path d="M19.728,236.108C8.848,236.108,0,244.96,0,255.84s8.848,19.732,19.728,19.732c10.884,0,19.732-8.852,19.736-19.732
			C39.464,244.96,30.612,236.108,19.728,236.108z M19.728,267.572C13.26,267.572,8,262.308,8,255.84s5.264-11.732,11.728-11.732
			c6.468,0,11.736,5.26,11.736,11.732S26.196,267.572,19.728,267.572z"/>
	</g>
</g>
<g>
	<g>
		<g>
			<path d="M32.66,238.62c-1.8-1.32-4.28-0.96-5.6,0.8c-1.36,1.8-1,4.28,0.8,5.6c0.72,0.56,1.56,0.84,2.396,0.84
				c1.2,0,2.404-0.56,3.2-1.6C34.776,242.46,34.416,239.98,32.66,238.62z"/>
			<path d="M42.256,225.86c-1.8-1.32-4.276-1-5.596,0.8c-1.364,1.76-1,4.24,0.796,5.6c0.724,0.52,1.564,0.8,2.36,0.8
				c1.24,0,2.44-0.56,3.2-1.6C44.376,229.66,44.016,227.18,42.256,225.86z"/>
			<path d="M51.86,213.06c-1.76-1.32-4.28-0.96-5.6,0.8s-1,4.28,0.8,5.6c0.716,0.52,1.556,0.8,2.396,0.8
				c1.204,0,2.404-0.56,3.204-1.6C53.98,216.9,53.616,214.38,51.86,213.06z"/>
			<path d="M80.66,174.66c-1.76-1.32-4.28-0.96-5.6,0.8c-1.32,1.8-0.96,4.28,0.8,5.6c0.72,0.56,1.56,0.8,2.396,0.8
				c1.2,0,2.404-0.52,3.2-1.6C82.776,178.5,82.416,176.02,80.66,174.66z"/>
			<path d="M61.456,200.26c-1.756-1.32-4.276-0.96-5.596,0.8s-1,4.28,0.8,5.6c0.72,0.52,1.56,0.8,2.396,0.8c1.2,0,2.4-0.56,3.2-1.6
				C63.576,204.1,63.216,201.58,61.456,200.26z"/>
			<path d="M71.06,187.46c-1.76-1.32-4.28-0.96-5.6,0.8c-1.32,1.76-0.956,4.28,0.8,5.6c0.72,0.56,1.56,0.8,2.4,0.8
				c1.2,0,2.4-0.56,3.2-1.6C73.18,191.3,72.82,188.78,71.06,187.46z"/>
		</g>
	</g>
</g>
<g>
	<g>
		<g>
			<path d="M121.18,170.66c-2.04-0.88-4.4,0.04-5.28,2.08c-0.876,2,0.04,4.36,2.04,5.24c0.516,0.24,1.08,0.36,1.6,0.36
				c1.56,0,3.04-0.88,3.68-2.4C124.096,173.9,123.18,171.54,121.18,170.66z"/>
			<path d="M106.536,164.22c-2.036-0.88-4.4,0.04-5.28,2.04c-0.876,2.04,0,4.4,2.04,5.28c0.524,0.24,1.084,0.36,1.6,0.36
				c1.56,0,3-0.92,3.68-2.4C109.452,167.46,108.536,165.1,106.536,164.22z"/>
			<path d="M135.82,177.1c-2.04-0.88-4.4,0.04-5.28,2.08c-0.876,2,0.04,4.36,2.04,5.28c0.52,0.2,1.08,0.32,1.6,0.32
				c1.56,0,3.04-0.88,3.68-2.4C138.736,180.38,137.82,178.02,135.82,177.1z"/>
			<path d="M150.456,183.58c-2.036-0.92-4.396,0-5.276,2.04c-0.88,2,0.04,4.36,2.04,5.24c0.52,0.24,1.076,0.36,1.64,0.36
				c1.52,0,2.96-0.88,3.64-2.4C153.376,186.82,152.456,184.46,150.456,183.58z"/>
		</g>
	</g>
</g>
<g>
	<g>
		<g>
			<path d="M236.184,210.46c-2.16-0.44-4.284,0.96-4.724,3.12c-0.44,2.16,0.96,4.28,3.12,4.72c0.28,0.08,0.52,0.08,0.804,0.08
				c1.876,0,3.516-1.28,3.916-3.2C239.744,213.02,238.344,210.9,236.184,210.46z"/>
			<path d="M220.504,207.26c-2.16-0.44-4.284,0.96-4.724,3.12c-0.44,2.16,0.96,4.28,3.12,4.72c0.28,0.04,0.556,0.08,0.804,0.08
				c1.876,0,3.556-1.28,3.916-3.2C224.064,209.82,222.664,207.7,220.504,207.26z"/>
			<path d="M283.184,220.1c-2.16-0.44-4.284,0.96-4.724,3.12c-0.44,2.16,0.96,4.28,3.12,4.72c0.28,0.08,0.556,0.08,0.84,0.08
				c1.84,0,3.52-1.28,3.88-3.2C286.78,222.66,285.384,220.54,283.184,220.1z"/>
			<path d="M267.54,216.9c-2.2-0.44-4.284,0.96-4.72,3.12c-0.44,2.16,0.92,4.28,3.08,4.72c0.28,0.04,0.556,0.08,0.84,0.08
				c1.84,0,3.52-1.32,3.88-3.2C271.1,219.46,269.7,217.34,267.54,216.9z"/>
			<path d="M251.864,213.7c-2.16-0.44-4.284,0.92-4.724,3.12c-0.44,2.16,0.96,4.24,3.12,4.72c0.28,0.04,0.516,0.08,0.804,0.08
				c1.836,0,3.516-1.32,3.92-3.2C255.424,216.26,254.024,214.14,251.864,213.7z"/>
		</g>
	</g>
</g>
<g>
	<g>
		<g>
			<path d="M316.136,218.9c-2.036,0.76-3.076,3.08-2.276,5.16c0.596,1.6,2.12,2.56,3.72,2.56c0.48,0,0.96-0.08,1.44-0.24
				c2.036-0.8,3.076-3.12,2.276-5.16C320.54,219.14,318.22,218.1,316.136,218.9z"/>
			<path d="M346.06,207.5c-2.076,0.8-3.12,3.12-2.32,5.16c0.6,1.6,2.12,2.56,3.72,2.56c0.48,0.04,0.96-0.08,1.44-0.24
				c2.08-0.8,3.12-3.12,2.32-5.16C350.42,207.74,348.1,206.7,346.06,207.5z"/>
			<path d="M331.096,213.18c-2.076,0.8-3.116,3.12-2.32,5.2c0.604,1.56,2.164,2.56,3.76,2.56c0.484,0,0.964-0.08,1.4-0.28
				c2.08-0.76,3.12-3.08,2.32-5.16C335.456,213.46,333.18,212.42,331.096,213.18z"/>
			<path d="M361.02,201.82c-2.08,0.76-3.12,3.08-2.32,5.16c0.596,1.6,2.12,2.56,3.72,2.56c0.48,0,0.96-0.08,1.44-0.28
				c2.04-0.76,3.076-3.08,2.32-5.16C365.38,202.06,363.06,201.02,361.02,201.82z"/>
			<path d="M420.776,179.02c-2.036,0.8-3.076,3.08-2.276,5.16c0.6,1.6,2.116,2.56,3.716,2.56c0.484,0,0.964-0.08,1.4-0.24
				c2.08-0.8,3.12-3.12,2.32-5.16C425.18,179.26,422.86,178.22,420.776,179.02z"/>
			<path d="M405.86,184.7c-2.08,0.8-3.12,3.12-2.32,5.16c0.596,1.6,2.12,2.6,3.72,2.6c0.48,0,0.96-0.08,1.44-0.28
				c2.04-0.76,3.076-3.08,2.32-5.16C410.22,184.98,407.9,183.94,405.86,184.7z"/>
			<path d="M440.9,175.62c-0.8-2.04-3.12-3.08-5.16-2.28c-2.076,0.76-3.12,3.08-2.32,5.16c0.6,1.6,2.12,2.56,3.76,2.56
				c0.44,0,0.92-0.08,1.4-0.28C440.66,180.02,441.7,177.7,440.9,175.62z"/>
			<path d="M390.9,190.42c-2.076,0.76-3.12,3.08-2.32,5.16c0.6,1.6,2.12,2.56,3.72,2.56c0.48,0,0.96-0.08,1.44-0.24
				c2.08-0.8,3.12-3.12,2.32-5.16C395.26,190.66,392.984,189.62,390.9,190.42z"/>
			<path d="M375.936,196.1c-2.04,0.8-3.076,3.12-2.32,5.16c0.644,1.6,2.16,2.6,3.764,2.6c0.48,0,0.96-0.08,1.396-0.28
				c2.08-0.76,3.12-3.08,2.32-5.16C380.34,196.38,378.02,195.3,375.936,196.1z"/>
		</g>
	</g>
</g>
<g>
	<g>
		<g>
			<path d="M311.54,262.86c2.16-0.52,3.44-2.68,2.916-4.84c-0.52-2.16-2.68-3.44-4.84-2.92c-2.16,0.56-3.436,2.72-2.916,4.88
				c0.436,1.8,2.076,3,3.88,3C310.9,262.98,311.22,262.94,311.54,262.86z"/>
			<path d="M307.66,247.34c2.16-0.52,3.476-2.68,2.916-4.84c-0.52-2.16-2.72-3.44-4.84-2.92c-2.16,0.56-3.44,2.72-2.916,4.88
				c0.44,1.8,2.08,3,3.88,3C307.02,247.46,307.34,247.42,307.66,247.34z"/>
			<path d="M315.42,278.38c2.16-0.52,3.48-2.68,2.92-4.84c-0.52-2.12-2.68-3.44-4.84-2.92c-2.16,0.56-3.44,2.72-2.92,4.88
				c0.48,1.8,2.08,3,3.88,3C314.78,278.5,315.1,278.46,315.42,278.38z"/>
			<path d="M327.096,324.94c2.124-0.52,3.444-2.68,2.884-4.84c-0.524-2.16-2.684-3.44-4.844-2.92c-2.156,0.56-3.436,2.72-2.916,4.88
				c0.48,1.8,2.076,3,3.876,3C326.416,325.06,326.736,325.02,327.096,324.94z"/>
			<path d="M319.296,293.9c2.16-0.52,3.48-2.68,2.92-4.84c-0.52-2.16-2.68-3.44-4.84-2.92c-2.16,0.56-3.44,2.72-2.92,4.84
				c0.484,1.84,2.124,3.04,3.884,3.04C318.66,294.02,318.98,293.98,319.296,293.9z"/>
			<path d="M333.86,335.62c-0.52-2.16-2.68-3.44-4.84-2.92c-2.12,0.56-3.44,2.72-2.92,4.84c0.48,1.84,2.08,3.04,3.88,3.04
				c0.316,0,0.636-0.04,1-0.12C333.1,339.94,334.42,337.78,333.86,335.62z"/>
			<path d="M323.216,309.42c2.124-0.52,3.444-2.68,2.88-4.84c-0.52-2.16-2.68-3.44-4.84-2.92c-2.16,0.56-3.436,2.72-2.916,4.88
				c0.436,1.8,2.08,3,3.876,3C322.536,309.54,322.856,309.5,323.216,309.42z"/>
		</g>
	</g>
</g>
<g>
	<g>
		<g>
			<path d="M473.256,216.98c2.2-0.2,3.804-2.16,3.564-4.36c-0.204-2.2-2.16-3.8-4.364-3.6c-2.196,0.2-3.796,2.16-3.596,4.36
				c0.2,2.08,1.96,3.64,3.996,3.64C472.98,217.02,473.096,216.98,473.256,216.98z"/>
			<path d="M474.78,232.9c2.2-0.2,3.84-2.16,3.6-4.36c-0.2-2.2-2.16-3.8-4.36-3.6c-2.196,0.24-3.8,2.16-3.6,4.36
				c0.196,2.08,1.96,3.64,4,3.64C474.54,232.94,474.664,232.9,474.78,232.9z"/>
			<path d="M471.7,201.06c2.196-0.2,3.8-2.16,3.596-4.36c-0.24-2.2-2.2-3.8-4.4-3.6c-2.196,0.2-3.8,2.16-3.6,4.36
				c0.244,2.08,1.964,3.64,4,3.64C471.42,201.1,471.54,201.06,471.7,201.06z"/>
			<path d="M476.376,248.82c2.2-0.2,3.804-2.16,3.56-4.36c-0.2-2.2-2.16-3.8-4.36-3.6c-2.196,0.2-3.8,2.16-3.596,4.36
				c0.2,2.08,1.96,3.64,3.956,3.64C476.096,248.86,476.216,248.82,476.376,248.82z"/>
			<path d="M479.46,280.66c2.2-0.2,3.84-2.16,3.6-4.36c-0.2-2.2-2.16-3.8-4.36-3.6c-2.196,0.24-3.8,2.16-3.6,4.36
				c0.196,2.08,1.96,3.64,4,3.64C479.22,280.7,479.344,280.7,479.46,280.66z"/>
			<path d="M481.056,296.58c2.16-0.2,3.804-2.16,3.56-4.36c-0.2-2.2-2.16-3.8-4.36-3.6c-2.196,0.24-3.8,2.16-3.596,4.36
				c0.2,2.08,1.956,3.64,3.996,3.64C480.776,296.62,480.896,296.62,481.056,296.58z"/>
			<path d="M477.936,264.74c2.16-0.2,3.804-2.16,3.564-4.36c-0.204-2.2-2.16-3.8-4.364-3.6c-2.196,0.2-3.796,2.16-3.596,4.36
				c0.2,2.08,1.96,3.64,3.96,3.64C477.66,264.78,477.776,264.74,477.936,264.74z"/>
			<path d="M486.18,308.14c-0.2-2.2-2.16-3.8-4.36-3.6s-3.8,2.16-3.6,4.36c0.2,2.08,1.916,3.64,3.96,3.64c0.16,0,0.28-0.04,0.4-0.04
				C484.776,312.3,486.42,310.34,486.18,308.14z"/>
		</g>
	</g>
</g>
<g>
	<g>
		<g>
			<path d="M380.58,341.62c-2.16,0.36-3.6,2.44-3.2,4.64c0.36,1.92,2.04,3.28,3.92,3.28c0.24,0,0.48-0.04,0.76-0.08
				c2.16-0.4,3.604-2.48,3.2-4.64C384.86,342.66,382.78,341.18,380.58,341.62z"/>
			<path d="M349.14,347.38c-2.2,0.4-3.64,2.48-3.24,4.64c0.36,1.92,2.04,3.28,3.96,3.28c0.24,0,0.48-0.04,0.72-0.08
				c2.16-0.4,3.604-2.48,3.2-4.64C353.384,348.42,351.3,346.98,349.14,347.38z"/>
			<path d="M396.344,338.7c-2.16,0.44-3.644,2.48-3.244,4.68c0.356,1.92,2.036,3.28,3.96,3.28c0.24,0,0.48-0.04,0.72-0.08
				c2.16-0.4,3.604-2.48,3.204-4.64C400.584,339.78,398.504,338.34,396.344,338.7z"/>
			<path d="M364.86,344.5c-2.16,0.36-3.604,2.44-3.2,4.64c0.32,1.92,2,3.28,3.916,3.28c0.244,0,0.48-0.04,0.72-0.08
				c2.16-0.4,3.604-2.48,3.204-4.64C369.1,345.54,367.02,344.06,364.86,344.5z"/>
			<path d="M412.06,335.82c-2.16,0.4-3.604,2.52-3.2,4.68c0.36,1.92,2.04,3.28,3.916,3.28c0.244,0,0.48-0.04,0.724-0.08
				c2.16-0.4,3.64-2.48,3.24-4.64C416.34,336.86,414.26,335.46,412.06,335.82z"/>
			<path d="M463.94,330.42c-0.4-2.2-2.48-3.64-4.68-3.24c-2.16,0.4-3.6,2.52-3.2,4.68c0.36,1.92,2.04,3.28,3.92,3.28
				c0.24,0,0.476-0.04,0.72-0.08C462.9,334.66,464.344,332.58,463.94,330.42z"/>
			<path d="M443.54,330.06c-2.16,0.4-3.604,2.52-3.2,4.68c0.32,1.92,2,3.28,3.916,3.28c0.244,0,0.48-0.04,0.724-0.08
				c2.156-0.4,3.6-2.48,3.2-4.64C447.78,331.1,445.7,329.7,443.54,330.06z"/>
			<path d="M427.78,332.94c-2.16,0.4-3.6,2.52-3.2,4.68c0.36,1.92,2.036,3.28,3.96,3.28c0.24,0,0.48-0.04,0.72-0.08
				c2.16-0.4,3.604-2.48,3.2-4.64C432.06,333.98,429.984,332.58,427.78,332.94z"/>
		</g>
	</g>
</g>
</svg>